SplineFontDB: 3.2
FontName: Ladora
FullName: Ladora
FamilyName: Ladora
Weight: Regular
Copyright: Copyright (c) 2024, Sleanux
UComments: "2024-5-18: Created with FontForge (http://fontforge.org)"
Version: 001.000
ItalicAngle: 0
UnderlinePosition: -100
UnderlineWidth: 50
Ascent: 800
Descent: 200
InvalidEm: 0
LayerCount: 2
Layer: 0 0 "Arri+AOgA-re" 1
Layer: 1 0 "Avant" 0
XUID: [1021 596 1339142916 119]
StyleMap: 0x0000
FSType: 0
OS2Version: 0
OS2_WeightWidthSlopeOnly: 0
OS2_UseTypoMetrics: 1
CreationTime: 1716026250
ModificationTime: 1716213330
OS2TypoAscent: 0
OS2TypoAOffset: 1
OS2TypoDescent: 0
OS2TypoDOffset: 1
OS2TypoLinegap: 90
OS2WinAscent: 0
OS2WinAOffset: 1
OS2WinDescent: 0
OS2WinDOffset: 1
HheadAscent: 0
HheadAOffset: 1
HheadDescent: 0
HheadDOffset: 1
MarkAttachClasses: 1
DEI: 91125
Encoding: ISO8859-1
UnicodeInterp: none
NameList: AGL For New Fonts
DisplaySize: -48
AntiAlias: 1
FitToEm: 0
WinInfo: 60 20 4
BeginPrivate: 0
EndPrivate
BeginChars: 256 62

StartChar: A
Encoding: 65 65 0
Width: 665
Flags: W
HStem: 0 25<6 52.3311 169.933 192 427 463.615 579.681 615> 182 32<242 472> 615 20G<446.177 489.862>
LayerCount: 2
Fore
SplineSet
487 635 m 1
 572 41 l 1
 587 34 601 25 621 25 c 1
 615 0 l 1
 578 0 l 1
 551 0 l 1
 421 0 l 1
 427 25 l 1
 495 38 l 1
 472 182 l 1
 227 182 l 1
 139 40 l 1
 197 25 l 1
 192 0 l 1
 101 0 l 1
 62 0 l 1
 52 0 l 1
 0 0 l 1
 6 25 l 1
 34 25 55 42 82 47 c 1
 459 635 l 5
 487 635 l 1
437 538 m 1
 242 214 l 1
 475 214 l 1
 437 538 l 1
EndSplineSet
EndChar

StartChar: B
Encoding: 66 66 1
Width: 582
Flags: W
HStem: 0 68<186.712 401.921> 0 20<5 40.8101> 319 47<250 422.916> 568 67<291.89 496.926> 617 18<147 172.141>
LayerCount: 2
Fore
SplineSet
147 635 m 1x68
 238 635 l 1x68
 401 635 l 1
 407 635 l 2
 480 635 534 625 567 601 c 0
 600 577 608 537 595 479 c 0
 586 441 570 410 545 385 c 0
 520 361 488 345 450 338 c 1
 449 334 l 1
 473 329 493 321 510 309 c 0
 528 298 542 282 548 261 c 0
 555 240 555 214 547 181 c 0
 534 123 505 79 460 47 c 0
 417 16 362 0 299 0 c 2
 255 0 l 1xb0
 0 0 l 1
 5 20 l 1
 54 27 87 53 112 92 c 1
 217 544 l 1
 210 584 188 610 142 617 c 1
 147 635 l 1x68
328 568 m 1x30
 310 566 297 561 291 544 c 1
 250 366 l 1
 360 366 l 2
 410 366 446 374 469 391 c 0
 493 409 507 432 515 467 c 0
 523 502 519 530 499 545 c 0
 480 560 444 568 394 568 c 2
 328 568 l 1x30
239 319 m 1
 187 92 l 5
 183 68 209 68 241 68 c 2
 300 68 l 2xa0
 353 68 392 79 418 101 c 0
 444 123 460 152 468 187 c 0
 476 221 471 247 454 268 c 0
 438 288 408 319 353 319 c 2
 239 319 l 1
EndSplineSet
EndChar

StartChar: C
Encoding: 67 67 2
Width: 534
Flags: W
HStem: 0 57<218.51 416.185> 474 21G<527 564.667> 585 45<327.389 506.362>
VStem: 527 33<474 504>
LayerCount: 2
Fore
SplineSet
279 0 m 1
 219 0 171 13 136 40 c 0
 100 66 77 103 66 149 c 0
 57 197 59 253 74 316 c 0
 88 378 111 432 144 479 c 0
 177 527 219 564 268 590 c 0
 318 617 375 630 440 630 c 0
 502 630 512 628 542 615 c 0
 548 615 568 641 568 641 c 1
 599 641 l 1
 574 534 l 1
 560 474 l 1
 560 474 549 474 527 474 c 1
 531 492 532 509 529 526 c 0
 525 543 517 557 504 568 c 0
 492 579 455 585 428 585 c 0
 359 585 304 561 264 515 c 0
 224 468 195 402 175 316 c 0
 163 265 159 219 163 180 c 0
 167 141 181 111 204 89 c 0
 227 68 260 57 306 57 c 0
 351 57 387 64 415 78 c 0
 445 93 469 110 488 130 c 1
 501 121 515 112 515 112 c 6
 522 106 482 57 468 48 c 4
 449 36 426 23 393 15 c 0
 362 5 325 0 279 0 c 1
EndSplineSet
EndChar

StartChar: D
Encoding: 68 68 3
Width: 596
Flags: W
HStem: 0 46<175 346.818> 0 38<9 70.2954> 598 45<303 464.542> 605 38<148 203.832>
LayerCount: 2
Fore
SplineSet
0 0 m 1x40
 9 38 l 1
 20 38 l 2
 39 38 56 41 71 49 c 0
 86 56 97 74 104 103 c 2
 206 544 l 2
 212 570 208 587 196 594 c 0
 185 602 170 605 151 605 c 2
 140 605 l 1
 148 643 l 1x50
 405 643 l 2
 491 643 552 615 587 559 c 0
 622 503 628 424 604 322 c 0
 589 256 565 199 533 151 c 0
 501 103 464 66 417 40 c 0
 370 13 317 0 257 0 c 2xa0
 0 0 l 1x40
175 46 m 1xa0
 248 46 l 2
 314 46 370 70 413 117 c 0
 458 165 491 234 511 322 c 0
 532 411 530 479 508 527 c 0
 486 574 442 598 376 598 c 2
 303 598 l 5
 175 46 l 1xa0
EndSplineSet
EndChar

StartChar: E
Encoding: 69 69 4
Width: 514
Flags: W
HStem: 0 45<175 398.995> 0 38<9 69.2961> 314 44<247 439.37> 485 21G<495 538.684> 598 45<303 490.317> 605 38<148 202.668>
VStem: 495 39<485 514.892>
LayerCount: 2
Fore
SplineSet
148 643 m 1x76
 571 643 l 1x76
 534 485 l 1
 495 485 l 1
 499 524 l 1
 504 544 499 561 491 575 c 0
 484 590 468 598 443 598 c 2
 303 598 l 1
 247 358 l 1
 414 358 l 2
 455 358 474 392 484 435 c 1
 511 435 l 1
 489 337 l 1
 489 336 l 5
 465 238 l 5
 438 238 l 1
 448 281 445 314 404 314 c 2
 237 314 l 1
 175 45 l 1
 336 45 l 2xba
 363 45 383 52 399 67 c 0
 415 82 426 99 433 119 c 2
 448 158 l 1
 491 158 l 1
 455 0 l 1
 0 0 l 1
 9 38 l 1
 20 38 l 2
 39 38 55 41 70 48 c 0
 86 55 97 72 103 98 c 2
 205 540 l 2
 212 569 207 586 196 593 c 0
 185 601 170 605 151 605 c 2
 140 605 l 1
 148 643 l 1x76
EndSplineSet
EndChar

StartChar: F
Encoding: 70 70 5
Width: 484
Flags: W
HStem: 0 38<9 69.25 187.517 259> 293 44<241 432> 484 21G<493 541.076> 596 45<301 488.618> 603 38<148 202.989>
VStem: 493 44<484 518.344>
LayerCount: 2
Fore
SplineSet
0 0 m 1xf4
 9 38 l 1
 20 38 l 2
 38 38 54 41 70 48 c 0
 86 55 96 72 102 98 c 2
 204 542 l 2
 210 569 207 585 195 593 c 0
 183 600 168 603 150 603 c 2
 139 603 l 1
 148 641 l 1
 569 641 l 5xec
 537 484 l 5
 493 484 l 1
 498 523 l 2
 500 543 498 560 489 575 c 0
 481 589 464 596 438 596 c 2
 301 596 l 1
 241 337 l 1
 442 337 l 1
 432 293 l 1
 231 293 l 1
 187 102 l 2
 181 74 183 56 195 48 c 0
 206 41 221 38 241 38 c 2
 268 38 l 1
 259 0 l 1
 0 0 l 1xf4
EndSplineSet
EndChar

StartChar: G
Encoding: 71 71 6
Width: 565
Flags: W
HStem: 0 49<204.031 388.684> 258 36<372 418.657 529.563 573> 478 21G<516 560.4> 590 45<315.801 494.013>
VStem: 516 40<478 509.818>
LayerCount: 2
Fore
SplineSet
277 0 m 0
 215 0 166 13 131 40 c 0
 96 66 74 103 65 151 c 0
 57 199 59 255 74 319 c 0
 88 381 111 436 143 483 c 0
 175 531 216 568 264 595 c 0
 312 622 367 635 428 635 c 0
 462 635 494 632 521 624 c 4
 537 620 573 655 573 655 c 5
 573 655 589 655 597 655 c 1
 567 528 l 1
 556 478 l 1
 556 478 537 478 516 478 c 1
 520 496 521 513 518 530 c 0
 515 547 507 564 479 577 c 0
 467 583 441 590 415 590 c 0
 346 590 293 566 253 519 c 0
 213 472 183 405 163 319 c 0
 143 232 142 165 162 119 c 0
 181 72 228 49 301 49 c 0
 316 49 333 50 347 52 c 0
 362 54 376 56 388 60 c 1
 420 199 l 2
 426 225 423 241 411 248 c 0
 400 255 385 258 367 258 c 2
 364 258 l 1
 372 294 l 1
 581 294 l 1
 573 258 l 1
 570 258 l 2
 554 258 541 254 529 247 c 0
 516 240 506 223 500 196 c 2
 464 40 l 1
 434 27 406 16 376 10 c 0
 346 3 311 0 277 0 c 0
EndSplineSet
EndChar

StartChar: H
Encoding: 72 72 7
Width: 633
Flags: W
HStem: 0 37<9 69.2961 186.185 241 361 421.296 538.011 593> 310 44<244 503> 598 37<147 200.469 308.218 379 499 552.182 660.34 731>
LayerCount: 2
Fore
SplineSet
0 0 m 1
 9 37 l 1
 20 37 l 2
 39 37 55 41 70 48 c 0
 85 56 96 74 102 101 c 2
 203 537 l 2
 209 563 205 580 193 587 c 0
 182 594 167 598 149 598 c 2
 138 598 l 1
 147 635 l 1
 388 635 l 1
 379 598 l 1
 368 598 l 2
 349 598 333 594 318 586 c 0
 302 579 291 562 285 534 c 2
 244 354 l 1
 513 354 l 1
 555 534 l 2
 561 562 557 579 546 586 c 0
 535 594 521 598 502 598 c 2
 491 598 l 1
 499 635 l 1
 740 635 l 5
 731 598 l 1
 720 598 l 2
 701 598 685 594 670 586 c 0
 654 579 644 562 638 534 c 2
 537 97 l 2
 531 71 534 54 546 47 c 0
 559 41 573 37 591 37 c 2
 602 37 l 1
 593 0 l 1
 352 0 l 1
 361 37 l 1
 372 37 l 2
 391 37 407 41 422 48 c 0
 437 56 449 74 455 101 c 2
 503 310 l 1
 233 310 l 1
 185 101 l 2
 179 74 181 56 193 48 c 0
 204 41 219 37 238 37 c 2
 249 37 l 1
 241 0 l 1
 0 0 l 1
EndSplineSet
EndChar

StartChar: I
Encoding: 73 73 8
Width: 278
Flags: W
HStem: 0 37<9 69.2961 186.185 241> 598 37<147 200.06 308.218 379>
LayerCount: 2
Fore
SplineSet
0 0 m 1
 9 37 l 1
 20 37 l 2
 39 37 55 41 70 48 c 0
 85 56 96 74 102 101 c 2
 202 534 l 2
 208 562 205 579 194 586 c 0
 183 594 168 598 149 598 c 2
 138 598 l 1
 147 635 l 1
 387 635 l 5
 379 598 l 1
 368 598 l 2
 349 598 333 594 318 586 c 0
 302 579 291 562 285 534 c 2
 185 101 l 2
 179 74 181 56 193 48 c 0
 204 41 219 37 238 37 c 2
 249 37 l 1
 241 0 l 1
 0 0 l 1
EndSplineSet
EndChar

StartChar: J
Encoding: 74 74 9
Width: 297
Flags: W
HStem: 0 21G<0 12> 613 28<179 212.623 326.563 372>
VStem: 16 8<37 71>
LayerCount: 2
Fore
SplineSet
0 0 m 1
 9 37 l 1
 16 71 l 1
 24 71 l 1
 23 34 l 6
 23 24 47 41 62 48 c 4
 76 55 88 68 99 86 c 0
 109 103 119 128 126 160 c 2
 220 568 l 2
 224 587 222 600 213 605 c 0
 205 610 194 613 180 613 c 2
 172 613 l 1
 179 641 l 1
 379 641 l 1
 372 613 l 1
 365 613 l 2
 351 613 338 610 326 604 c 0
 315 599 307 586 302 565 c 2
 209 160 l 2
 200 120 185 90 168 67 c 0
 151 44 127 35 103 25 c 0
 79 15 39 6 12 6 c 1
 7 0 l 1
 0 0 l 1
EndSplineSet
EndChar

StartChar: K
Encoding: 75 75 10
Width: 584
Flags: W
HStem: 0 37<9 68.3416 186.185 241> 598 37<147 200.469 308.218 379 485 505.717 606.599 659>
LayerCount: 2
Fore
SplineSet
0 0 m 1
 9 37 l 1
 20 37 l 2
 38 37 55 41 69 47 c 0
 85 54 95 71 101 97 c 2
 203 537 l 2
 209 563 205 580 193 587 c 0
 182 594 167 598 149 598 c 2
 138 598 l 1
 147 635 l 1
 388 635 l 1
 379 598 l 1
 368 598 l 2
 349 598 333 594 318 586 c 0
 302 579 291 562 285 534 c 2
 227 283 l 1
 448 494 l 2
 471 516 485 533 495 546 c 0
 505 560 510 571 512 579 c 0
 514 587 512 592 506 594 c 0
 500 597 491 598 477 598 c 1
 485 635 l 1
 667 635 l 1
 659 599 l 5
 640 599 621 591 601 576 c 0
 581 561 556 541 529 515 c 2
 376 370 l 1
 490 109 l 2
 500 85 511 68 523 55 c 0
 535 43 539 38 551 31 c 2
 563 23 l 1
 558 0 l 1
 549 0 l 2
 521 0 499 1 481 4 c 0
 464 6 450 10 439 16 c 0
 429 22 420 30 413 40 c 0
 407 51 400 64 393 80 c 2
 302 300 l 1
 217 238 l 1
 185 101 l 2
 179 74 181 56 193 48 c 0
 204 41 219 37 238 37 c 2
 249 37 l 1
 241 0 l 1
 0 0 l 1
EndSplineSet
EndChar

StartChar: L
Encoding: 76 76 11
Width: 472
Flags: W
HStem: 0 45<169 362.436> 0 22<16 50.4836> 604 31<152 191.473 314.451 368>
LayerCount: 2
Fore
SplineSet
152 635 m 1x60
 222 635 l 1
 306 635 l 1
 375 635 l 1
 368 604 l 1
 310 604 290 567 283 536 c 2
 169 45 l 1
 311 45 l 2xa0
 383 45 415 150 415 150 c 1
 444 150 l 1
 409 0 l 1
 159 0 l 1
 75 0 l 1
 0 0 l 1
 5 22 l 1
 5 22 17 22 16 22 c 5
 52 23 88 55 97 93 c 2
 199 536 l 2
 206 568 203 604 145 604 c 1
 152 635 l 1x60
EndSplineSet
EndChar

StartChar: M
Encoding: 77 77 12
Width: 777
Flags: W
HStem: 0 37<9 70.2954 162.426 198 520 568.39 671.185 728> 598 37<147 203.469 802.751 866>
LayerCount: 2
Fore
SplineSet
0 0 m 1
 9 37 l 1
 20 37 l 2
 39 37 56 41 71 47 c 0
 87 54 98 71 104 97 c 2
 206 537 l 2
 212 563 208 580 196 587 c 0
 184 594 168 598 149 598 c 2
 138 598 l 1
 147 635 l 1
 342 635 l 1
 402 126 l 1
 696 635 l 1
 875 635 l 1
 866 598 l 1
 855 598 l 2
 835 598 818 594 802 586 c 0
 786 579 776 562 770 534 c 2
 670 101 l 2
 664 74 666 56 678 48 c 0
 690 41 706 37 726 37 c 2
 737 37 l 1
 728 0 l 1
 512 0 l 1
 520 37 l 1
 523 37 l 2
 542 37 556 41 569 47 c 0
 582 54 591 69 597 93 c 6
 707 568 l 1
 379 0 l 1
 333 0 l 1
 265 567 l 1
 157 101 l 2
 151 74 153 56 162 48 c 0
 171 41 185 37 204 37 c 2
 207 37 l 1
 198 0 l 1
 0 0 l 1
EndSplineSet
EndChar

StartChar: N
Encoding: 78 78 13
Width: 648
Flags: W
HStem: 0 41<9 73.2493 162.155 221> 591 44<147 207.055 540 599.629 686.751 751>
LayerCount: 2
Fore
SplineSet
0 0 m 1
 9 41 l 1
 21 41 l 2
 41 41 58 45 74 52 c 0
 91 60 101 74 107 101 c 2
 207 533 l 2
 213 559 209 575 196 582 c 0
 184 589 168 591 148 591 c 2
 136 591 l 1
 147 635 l 1
 308 635 l 1
 510 143 l 1
 599 530 l 2
 605 556 603 573 590 580 c 0
 578 587 561 591 542 591 c 2
 530 591 l 1
 540 635 l 1
 761 635 l 5
 751 591 l 1
 740 591 l 2
 720 591 702 587 686 579 c 0
 670 572 659 554 653 527 c 2
 531 0 l 1
 469 0 l 1
 256 512 l 1
 225 376 161 101 161 101 c 2
 155 74 159 60 171 52 c 0
 183 45 200 41 220 41 c 2
 231 41 l 1
 221 0 l 1
 0 0 l 1
EndSplineSet
EndChar

StartChar: O
Encoding: 79 79 14
Width: 659
Flags: W
HStem: 0 47<214.944 406.187> 589 46<329.766 520.752>
LayerCount: 2
Fore
SplineSet
294 0 m 0
 228 0 176 13 139 40 c 0
 101 66 77 103 66 151 c 0
 56 199 59 255 74 319 c 0
 89 383 112 438 144 486 c 0
 177 533 219 570 268 595 c 0
 318 622 375 635 441 635 c 4
 503 635 554 622 591 595 c 0
 629 570 653 533 664 485 c 0
 676 438 675 382 660 318 c 0
 645 254 621 198 587 150 c 0
 554 103 513 66 463 40 c 0
 413 13 357 0 294 0 c 0
305 47 m 0
 375 47 429 71 468 118 c 0
 508 166 537 233 557 318 c 0
 577 403 578 470 560 517 c 0
 543 565 500 589 431 589 c 0
 361 589 306 565 266 517 c 0
 226 470 197 403 177 318 c 0
 157 233 156 166 174 118 c 0
 192 71 236 47 305 47 c 0
EndSplineSet
EndChar

StartChar: P
Encoding: 80 80 15
Width: 474
Flags: W
HStem: 0 37<9 69.2961 172.639 245> 262 42<220 357.927> 593 42<147 203.989 287 416.95>
LayerCount: 2
Fore
SplineSet
0 0 m 1
 9 37 l 1
 20 37 l 2
 39 37 55 41 70 48 c 0
 85 56 96 74 102 101 c 2
 203 537 l 2
 209 563 205 580 193 587 c 0
 182 594 167 598 149 598 c 2
 138 598 l 1
 147 635 l 1
 366 635 l 2
 436 635 483 619 509 585 c 0
 534 552 540 507 527 449 c 0
 519 414 508 396 486 365 c 0
 465 334 436 310 399 291 c 4
 362 272 317 262 262 262 c 2
 210 262 l 1
 172 97 l 2
 166 71 169 54 180 47 c 0
 193 41 207 37 226 37 c 2
 253 37 l 1
 245 0 l 1
 0 0 l 1
220 304 m 1
 264 304 l 2
 314 304 352 316 380 339 c 0
 407 364 424 389 437 446 c 0
 449 496 447 532 433 556 c 0
 419 580 389 593 342 593 c 2
 287 593 l 1
 220 304 l 1
EndSplineSet
EndChar

StartChar: Q
Encoding: 81 81 16
Width: 594
Flags: W
HStem: -175 45<372.798 445> 589 46<316.573 493.924>
LayerCount: 2
Fore
SplineSet
398 -175 m 2
 367 -175 338 -169 312 -157 c 0
 285 -146 265 -126 250 -99 c 0
 236 -71 225 -50 237 0 c 1
 184 6 144 22 115 49 c 0
 87 77 70 114 63 160 c 0
 56 206 59 259 73 318 c 0
 88 382 111 438 142 486 c 0
 173 533 211 570 258 596 c 0
 305 622 361 635 422 635 c 0
 480 635 526 622 561 596 c 0
 596 570 618 533 627 485 c 0
 637 437 636 381 621 317 c 0
 608 261 588 210 561 166 c 0
 534 123 502 86 464 58 c 4
 426 30 383 12 334 3 c 1
 325 -36 333 -45 339 -68 c 0
 346 -91 355 -107 372 -116 c 0
 389 -125 408 -130 431 -130 c 2
 445 -130 l 1
 449 -175 l 1
 398 -175 l 2
285 45 m 0
 350 45 401 69 438 117 c 0
 476 165 504 232 524 317 c 0
 544 403 546 469 530 517 c 0
 515 565 475 589 411 589 c 0
 346 589 294 565 256 517 c 0
 218 469 190 403 170 317 c 0
 150 232 148 165 164 117 c 0
 180 69 221 45 285 45 c 0
EndSplineSet
EndChar

StartChar: R
Encoding: 82 82 17
Width: 548
Flags: W
HStem: 0 37<9 68.3416 185.011 241> 0 23<485.156 516> 280 42<236 295> 593 42<147 203.989 299 434.696>
LayerCount: 2
Fore
SplineSet
0 0 m 1x70
 9 37 l 1
 20 37 l 2xb0
 38 37 55 41 69 47 c 0
 85 54 95 71 101 97 c 2
 203 537 l 2
 209 563 205 580 193 587 c 0
 182 594 167 598 149 598 c 2
 138 598 l 1
 147 635 l 1
 369 635 l 6
 511 635 568 578 542 464 c 0
 535 432 522 405 505 383 c 0
 488 362 470 345 448 332 c 0
 425 319 404 309 383 302 c 1
 449 94 l 2
 458 71 467 53 478 41 c 0
 488 29 502 23 519 23 c 2
 521 23 l 1
 516 0 l 1
 505 0 l 2x70
 471 0 444 2 425 5 c 0
 407 9 395 17 385 28 c 0
 376 40 368 58 361 80 c 2
 295 280 l 1
 226 280 l 1
 184 97 l 2
 178 71 181 54 193 47 c 0
 206 41 220 37 238 37 c 2
 249 37 l 1
 241 0 l 1xb0
 0 0 l 1x70
236 322 m 1
 295 322 l 2
 343 322 378 334 401 357 c 0
 425 380 442 415 453 461 c 0
 464 508 462 542 448 562 c 0
 433 582 401 593 355 593 c 2
 299 593 l 1
 236 322 l 1
EndSplineSet
EndChar

StartChar: S
Encoding: 83 83 18
Width: 442
Flags: W
HStem: 0 43<130.561 283.076> 488 21G<413 472.556> 599 44<260.615 395.964>
VStem: 413 55<488 518.732>
LayerCount: 2
Fore
SplineSet
509 668 m 1
 468 488 l 1
 413 488 l 1
 417 506 419 524 416 541 c 0
 413 557 406 571 394 583 c 0
 383 594 364 599 339 599 c 0
 305 599 276 590 253 572 c 0
 230 554 214 530 207 499 c 0
 202 476 202 456 207 440 c 0
 212 424 223 410 240 397 c 0
 257 385 282 371 313 357 c 0
 360 336 394 312 418 285 c 0
 440 257 447 221 437 176 c 0
 424 121 393 77 347 46 c 0
 300 15 244 0 177 0 c 0
 119 0 76 11 52 34 c 0
 28 57 20 87 29 124 c 0
 33 141 41 155 55 166 c 0
 69 177 86 182 106 182 c 5
 101 158 100 135 104 114 c 0
 108 93 117 76 131 62 c 0
 146 49 166 43 194 43 c 0
 234 43 267 52 294 71 c 0
 322 90 339 118 347 153 c 0
 352 175 352 193 346 208 c 0
 341 223 330 237 313 250 c 0
 296 263 272 276 240 290 c 0
 190 312 155 338 135 367 c 0
 115 397 111 436 122 484 c 0
 130 518 144 546 166 569 c 0
 189 593 216 611 248 624 c 0
 281 637 316 643 353 643 c 0
 391 643 421 638 445 627 c 1
 496 668 l 1
 509 668 l 1
EndSplineSet
EndChar

StartChar: T
Encoding: 84 84 19
Width: 527
Flags: W
HStem: 0 38<118 186.296 304.692 369> 485 21G<112 156.5 555 590.684> 598 45<182.732 335 420 561.16>
VStem: 555 31<485 514.892>
LayerCount: 2
Fore
SplineSet
153 643 m 5
 387 643 l 1
 623 643 l 1
 586 485 l 1
 555 485 l 1
 574 569 570 598 512 598 c 2
 420 598 l 1
 304 98 l 2
 298 72 301 55 313 48 c 0
 325 41 340 38 358 38 c 2
 378 38 l 1
 369 0 l 1
 239 0 l 1
 109 0 l 1
 118 38 l 1
 137 38 l 2
 156 38 172 41 187 48 c 0
 203 55 214 72 220 98 c 2
 335 598 l 1
 243 598 l 2
 184 598 166 569 147 485 c 1
 112 485 l 5
 153 643 l 5
EndSplineSet
EndChar

StartChar: U
Encoding: 85 85 20
Width: 674
Flags: W
HStem: 0 53<254.677 438.773> 606 37<148 209.047 336.798 404 544 604.047 695.798 762>
LayerCount: 2
Fore
SplineSet
314 0 m 0
 242 0 191 15 158 46 c 0
 124 77 116 128 133 201 c 2
 212 545 l 2
 218 571 214 588 201 595 c 0
 189 602 172 606 152 606 c 2
 140 606 l 1
 148 643 l 1
 413 643 l 1
 404 606 l 1
 392 606 l 2
 372 606 353 602 336 594 c 0
 320 587 309 570 303 542 c 2
 223 195 l 2
 211 144 216 107 240 85 c 0
 263 64 296 53 341 53 c 0
 393 53 435 66 465 92 c 0
 496 118 516 152 525 192 c 2
 607 545 l 2
 613 571 609 588 596 595 c 0
 583 602 566 606 546 606 c 2
 535 606 l 1
 544 643 l 1
 771 643 l 1
 762 606 l 1
 751 606 l 2
 731 606 712 602 695 594 c 0
 679 587 668 570 662 542 c 2
 580 190 l 2
 566 131 537 84 491 51 c 4
 445 17 386 0 314 0 c 0
EndSplineSet
EndChar

StartChar: V
Encoding: 86 86 21
Width: 721
Flags: W
HStem: 0 21G<296.876 385.813> 605 38<148 194.575 334.972 415 565 633.062 734.611 801>
LayerCount: 2
Fore
SplineSet
300 0 m 1
 213 557 l 2
 210 576 205 589 195 595 c 0
 186 602 173 605 153 605 c 2
 140 605 l 1
 148 643 l 1
 424 643 l 1
 415 605 l 1
 393 605 l 2
 352 605 329 591 322 562 c 0
 321 557 321 552 321 547 c 0
 321 541 322 535 322 529 c 2
 365 236 l 2
 369 209 372 184 373 158 c 0
 375 133 376 110 376 88 c 1
 387 110 397 133 410 158 c 0
 423 182 444 214 456 236 c 2
 618 522 l 6
 628 543 l 4
 635 546 634 556 635 561 c 0
 642 590 625 605 580 605 c 2
 556 605 l 1
 565 643 l 1
 810 643 l 1
 801 605 l 1
 782 605 l 2
 762 605 747 601 734 592 c 0
 723 583 707 564 690 535 c 2
 374 0 l 1
 300 0 l 1
EndSplineSet
EndChar

StartChar: W
Encoding: 87 87 22
Width: 863
Flags: W
HStem: 0 21G<212.39 295.524 538.484 620.645> 605 38<148 183.669 294.513 359 775 827.116 907.517 962>
VStem: 196 86<327.647 594.714> 213 76<88 229.353> 526 74<333.667 504> 539 71<88 271.385>
LayerCount: 2
Fore
SplineSet
213 0 m 1xd8
 196 557 l 2
 195 576 191 589 184 595 c 0
 177 602 166 605 150 605 c 2
 140 605 l 1
 148 643 l 1
 368 643 l 1
 359 605 l 1
 341 605 l 2
 309 605 290 591 283 562 c 0
 282 557 281 552 282 547 c 0
 282 541 282 535 282 529 c 2xe0
 289 240 l 2
 289 213 290 187 289 160 c 0
 290 134 288 110 288 88 c 1
 297 112 308 137 320 165 c 0
 332 193 345 222 358 250 c 2
 542 635 l 1
 600 637 l 5xd8
 609 247 l 2
 610 217 611 188 610 160 c 0
 609 133 608 109 607 88 c 1
 617 110 627 133 637 157 c 0
 647 181 660 207 674 236 c 2
 808 514 l 2
 811 521 815 530 819 539 c 0
 824 549 827 556 828 561 c 0
 835 590 820 605 785 605 c 2
 766 605 l 1
 775 643 l 1
 971 643 l 1
 962 605 l 1
 947 605 l 2
 931 605 918 601 907 593 c 0
 897 584 883 565 869 535 c 2
 611 0 l 1
 539 0 l 1xc4
 526 504 l 1
 286 0 l 1
 213 0 l 1xd8
EndSplineSet
EndChar

StartChar: X
Encoding: 88 88 23
Width: 617
Flags: W
HStem: 0 38<9 75.6466 167.971 214 345 404.443 533.544 578> 605 38<161 210.666 349.38 394 508 535.577 633.075 696>
LayerCount: 2
Fore
SplineSet
0 0 m 1
 9 38 l 1
 14 38 l 2
 35 38 54 42 68 51 c 0
 82 61 101 77 122 101 c 2
 321 316 l 1
 229 557 l 2
 223 575 212 587 201 594 c 0
 189 602 176 605 163 605 c 2
 152 605 l 1
 161 643 l 1
 403 643 l 1
 394 605 l 1
 392 605 l 2
 372 605 357 602 349 597 c 0
 341 592 337 586 335 579 c 0
 333 572 333 566 334 559 c 0
 335 553 338 542 344 526 c 2
 394 394 l 1
 510 524 l 2
 519 534 526 544 532 553 c 0
 539 563 543 571 545 579 c 0
 548 590 545 597 536 600 c 0
 527 603 516 605 502 605 c 2
 500 605 l 1
 508 643 l 1
 705 643 l 1
 696 605 l 1
 688 605 l 2
 670 605 655 600 640 591 c 0
 626 582 607 565 584 540 c 2
 410 352 l 1
 515 86 l 2
 524 68 532 56 542 49 c 0
 552 41 564 38 575 38 c 2
 587 38 l 1
 578 0 l 1
 336 0 l 1
 345 38 l 1
 349 38 l 2
 384 38 405 48 410 68 c 0
 411 74 411 81 409 88 c 0
 407 96 402 110 395 130 c 2
 338 273 l 1
 205 125 l 2
 199 117 191 108 183 96 c 0
 175 86 170 75 168 66 c 0
 164 47 181 38 220 38 c 2
 223 38 l 1
 214 0 l 5
 0 0 l 1
EndSplineSet
EndChar

StartChar: Y
Encoding: 89 89 24
Width: 562
Flags: W
HStem: 0 38<142 208.296 323.965 385> 605 38<148 179.716 301.285 363 464 518.26 603.659 653>
LayerCount: 2
Fore
SplineSet
133 0 m 1
 142 38 l 1
 160 38 l 2
 178 38 194 41 209 48 c 0
 224 55 235 72 241 98 c 2
 280 268 l 1
 196 557 l 2
 191 575 186 587 180 594 c 0
 174 602 164 605 150 605 c 2
 140 605 l 1
 148 643 l 1
 372 643 l 1
 363 605 l 1
 333 605 l 2
 318 605 307 602 301 596 c 0
 296 591 292 584 290 576 c 0
 288 568 288 560 289 551 c 0
 291 543 292 535 294 529 c 2
 326 408 l 2
 331 389 335 371 337 353 c 0
 339 335 342 319 343 305 c 1
 351 318 362 334 375 352 c 0
 395 380 396 380 415 408 c 2
 491 512 l 2
 499 522 505 531 509 540 c 0
 514 550 516 558 518 566 c 0
 524 592 512 605 479 605 c 2
 455 605 l 1
 464 643 l 1
 662 643 l 1
 653 605 l 1
 644 605 l 2
 632 605 621 600 608 590 c 0
 595 580 580 562 560 535 c 2
 362 268 l 1
 324 103 l 2
 317 74 320 56 331 49 c 0
 342 41 357 38 375 38 c 2
 394 38 l 1
 385 0 l 5
 133 0 l 1
EndSplineSet
EndChar

StartChar: Z
Encoding: 90 90 25
Width: 556
Flags: W
HStem: 0 45<126 426.292> 485 21G<134 186.179> 598 45<225.421 491>
LayerCount: 2
Fore
SplineSet
0 0 m 1
 8 36 l 1
 491 598 l 1
 287 598 l 2
 259 598 239 590 224 575 c 0
 211 561 200 544 193 524 c 2
 179 485 l 1
 134 485 l 1
 171 643 l 1
 618 643 l 1
 610 606 l 1
 126 45 l 1
 363 45 l 2
 391 45 412 52 427 67 c 0
 441 82 451 99 458 119 c 2
 472 158 l 1
 521 158 l 5
 480 0 l 5
 0 0 l 1
EndSplineSet
EndChar

StartChar: one
Encoding: 49 49 26
Width: 282
Flags: W
HStem: -0.0703125 32.6113<41.1855 106.537 171.57 236.924> 456.02 20G<126.314 171.545> 456.02 20G<126.314 171.545>
VStem: 106.564 64.9805<34.9354 388.131> 126.314 45.2305<443.838 475.955>
LayerCount: 2
Fore
SplineSet
171.544921875 476.01953125 m 1xc8
 171.544921875 49.0078125 l 2
 171.544921875 33.359375 206.29296875 32.4736328125 236.88671875 32.47265625 c 1
 236.88671875 32.541015625 l 1
 236.923828125 32.541015625 l 1
 236.923828125 32.47265625 l 1
 236.923828125 -0.0703125 l 1
 139.052734375 -0.0703125 l 1
 139.052734375 0 l 1
 41.224609375 0 l 1
 41.185546875 0 l 1
 41.185546875 32.541015625 l 1
 71.7705078125 32.541015625 106.522460938 33.4228515625 106.564453125 49.05078125 c 2
 106.564453125 388.130859375 l 1xd0
 0 385.41015625 l 1
 0 398.647460938 0.2900390625 409.774414062 0.2900390625 409.774414062 c 1
 0.2900390625 409.774414062 126.314453125 428.046875 126.314453125 475.955078125 c 1
 171.544921875 476.01953125 l 1xc8
EndSplineSet
Validated: 1
EndChar

StartChar: two
Encoding: 50 50 27
Width: 392
Flags: W
HStem: 0 52.5967<61.6582 304.535> 443.127 32.873<113.016 229.078>
VStem: 9.16504 71.6572<354.004 418.75> 257.464 84.1553<296.692 420.048> 327.454 34.9951<101.906 113.74>
LayerCount: 2
Fore
SplineSet
0 0 m 1xe8
 0 47.994140625 l 1
 139.147460938 174.883789062 l 2
 168.587890625 202.05859375 191.91796875 225.508789062 209.137695312 245.232421875 c 0
 226.357421875 265.39453125 238.577148438 284.4609375 245.798828125 302.430664062 c 0
 253.575195312 320.401367188 257.463867188 339.467773438 257.463867188 359.629882812 c 0
 257.463867188 384.61328125 250.520507812 404.775390625 236.633789062 420.116210938 c 0
 222.747070312 435.45703125 201.361328125 443.126953125 172.475585938 443.126953125 c 0
 146.923828125 443.126953125 127.482421875 438.524414062 114.150390625 429.3203125 c 0
 101.374023438 420.116210938 92.4873046875 408.0625 87.48828125 393.16015625 c 0
 83.0439453125 378.2578125 80.822265625 362.259765625 80.822265625 345.166015625 c 1
 60.8251953125 345.166015625 43.8828125 348.014648438 29.99609375 353.712890625 c 0
 16.1083984375 359.848632812 9.1650390625 371.245117188 9.1650390625 387.900390625 c 0
 9.1650390625 413.322265625 22.7744140625 434.361328125 49.9931640625 451.016601562 c 0
 77.767578125 467.671875 118.594726562 476 172.475585938 476 c 0
 224.69140625 476 265.796875 465.918945312 295.791992188 445.756835938 c 0
 326.34375 426.033203125 341.619140625 399.515625 341.619140625 366.204101562 c 0xf0
 341.619140625 335.5234375 329.3984375 305.499023438 304.95703125 276.1328125 c 0
 280.516601562 247.204101562 246.354492188 213.673828125 202.471679688 175.541015625 c 2
 61.658203125 52.5966796875 l 1
 254.130859375 52.5966796875 l 2
 279.127929688 52.5966796875 296.069335938 57.6376953125 304.95703125 67.71875 c 0
 313.844726562 77.7998046875 320.233398438 89.1953125 324.12109375 101.90625 c 2
 327.454101562 113.740234375 l 1
 362.44921875 113.740234375 l 1
 358.283203125 0 l 1
 0 0 l 1xe8
EndSplineSet
Validated: 1
EndChar

StartChar: three
Encoding: 51 51 28
Width: 362
Flags: W
HStem: 0 35.0186<72.5987 197.758> 229.569 33.0732<87.9082 172.944> 443.575 32.4248<95.33 196.565>
VStem: 0 43.9541<58.4584 102.116> 8.37207 60.001<355.666 423.471> 219.77 71.8613<308.725 424.112> 236.514 72.5586<67.8 194.095>
LayerCount: 2
Fore
SplineSet
131.861328125 0 m 0xe2
 79.67578125 0 52.326171875 7.1337890625 31.3955078125 21.400390625 c 0
 10.46484375 36.099609375 0 52.9609375 0 71.9833984375 c 0
 0 84.953125 3.953125 95.11328125 11.8603515625 102.462890625 c 0
 19.767578125 109.8125 30.46484375 113.487304688 43.9541015625 113.487304688 c 1
 43.9541015625 90.57421875 51.62890625 71.767578125 66.9775390625 57.068359375 c 0
 82.326171875 42.3681640625 104.1875 35.0185546875 132.559570312 35.0185546875 c 0
 151.1640625 35.0185546875 168.141601562 38.2607421875 183.490234375 44.74609375 c 0
 199.303710938 51.2314453125 212.094726562 62.0400390625 221.862304688 77.171875 c 0
 231.629882812 92.7353515625 236.513671875 113.487304688 236.513671875 139.427734375 c 0xf2
 236.513671875 166.665039062 225.118164062 188.498046875 202.327148438 204.926757812 c 0
 180.001953125 221.35546875 149.303710938 229.569335938 110.233398438 229.569335938 c 2
 87.908203125 229.569335938 l 1
 87.908203125 262.642578125 l 1
 110.233398438 262.642578125 l 2
 130.69921875 262.642578125 149.071289062 266.75 165.350585938 274.96484375 c 0
 182.094726562 283.178710938 195.350585938 294.8515625 205.118164062 309.983398438 c 0
 214.885742188 325.115234375 219.76953125 342.841796875 219.76953125 363.161132812 c 0
 219.76953125 388.236328125 213.955078125 407.907226562 202.327148438 422.174804688 c 0
 191.1640625 436.44140625 172.094726562 443.575195312 145.1171875 443.575195312 c 0
 123.721679688 443.575195312 107.443359375 439.03515625 96.2802734375 429.956054688 c 0
 85.58203125 420.876953125 78.140625 408.98828125 73.9541015625 394.2890625 c 0
 70.2333984375 379.58984375 68.373046875 363.809570312 68.373046875 346.948242188 c 1
 51.6279296875 346.948242188 37.4423828125 349.758789062 25.814453125 355.37890625 c 0
 14.1865234375 361.431640625 8.3720703125 372.671875 8.3720703125 389.100585938 c 0
 8.3720703125 414.17578125 19.767578125 434.928710938 42.55859375 451.357421875 c 0
 65.814453125 467.786132812 100.000976562 476 145.1171875 476 c 0
 188.838867188 476 224.1875 466.920898438 251.165039062 448.762695312 c 0
 278.142578125 431.037109375 291.630859375 405.74609375 291.630859375 372.888671875 c 0xec
 291.630859375 353.43359375 286.747070312 335.491210938 276.979492188 319.0625 c 0
 267.211914062 303.06640625 253.956054688 289.231445312 237.211914062 277.55859375 c 0
 220.466796875 266.317382812 201.397460938 258.319335938 180.001953125 253.564453125 c 1
 193.025390625 252.266601562 206.978515625 249.45703125 221.862304688 245.133789062 c 0
 236.74609375 241.2421875 250.700195312 234.973632812 263.723632812 226.327148438 c 0
 277.211914062 217.6796875 288.142578125 206.22265625 296.514648438 191.956054688 c 0
 304.88671875 178.12109375 309.072265625 160.395507812 309.072265625 138.779296875 c 0
 309.072265625 112.838867188 303.723632812 90.7900390625 293.026367188 72.6318359375 c 0
 282.328125 54.90625 268.142578125 40.6396484375 250.467773438 29.8310546875 c 0
 232.79296875 19.455078125 213.490234375 11.888671875 192.559570312 7.1337890625 c 0
 172.094726562 2.3779296875 145.723632812 0 131.861328125 0 c 0xe2
EndSplineSet
Validated: 1
EndChar

StartChar: four
Encoding: 52 52 29
Width: 432
Flags: W
HStem: 0 28<136.991 195.973 303.715 352.317> 130.667 37.333<49.8154 213.099 286.59 372.382> 456 20G<200.344 286.59> 456 20G<200.344 286.59>
VStem: 213.099 73.4912<36.2763 130.667 168 428.686>
LayerCount: 2
Fore
SplineSet
136.991210938 0 m 1xe8
 136.991210938 28 l 1
 156.364257812 28 l 2
 172.046875 28 185.422851562 30.6669921875 196.493164062 36 c 0
 207.563476562 41.77734375 213.098632812 55.111328125 213.098632812 76 c 2
 213.098632812 130.666992188 l 1
 0 130.666992188 l 1
 0 158 l 1
 213.790039062 476 l 1
 286.58984375 476 l 1
 286.58984375 168 l 1
 372.381835938 168 l 1
 372.381835938 130.666992188 l 1
 286.58984375 130.666992188 l 1
 286.58984375 76 l 2
 286.58984375 55.111328125 292.124023438 41.77734375 303.194335938 36 c 0
 314.264648438 30.6669921875 327.640625 28 343.323242188 28 c 2
 352.317382812 28 l 1
 352.317382812 0 l 1
 136.991210938 0 l 1xe8
49.8154296875 168 m 1
 213.098632812 168 l 1
 213.098632812 291.333007812 l 1
 213.098632812 334.666992188 l 2
 213.559570312 351.111328125 214.250976562 367.555664062 215.173828125 384 c 0
 216.096679688 400.444335938 217.018554688 415.555664062 217.94140625 429.333007812 c 1
 215.634765625 424.888671875 211.9453125 418.22265625 206.87109375 409.333007812 c 0
 201.797851562 400.444335938 196.032226562 390.666992188 189.57421875 380 c 0
 183.1171875 369.77734375 176.889648438 359.77734375 170.893554688 350 c 0
 164.897460938 340.666992188 159.823242188 332.888671875 155.672851562 326.666992188 c 2
 49.8154296875 168 l 1
EndSplineSet
Validated: 1
EndChar

StartChar: five
Encoding: 53 53 30
Width: 364
Flags: W
HStem: 0 38.79<67.7647 200.719> 252.464 36.1602<62.7005 194.777> 423.403 52.5967<75.9121 245.603>
VStem: 0 45.5469<58.4545 94.3635> 236.412 75.1895<71.6496 218.096> 258.102 30.3643<376.724 396.447>
LayerCount: 2
Fore
SplineSet
136.641601562 0 m 0xf8
 100.974609375 0 73.2607421875 3.505859375 53.5 10.5185546875 c 0
 33.7392578125 17.53125 19.76171875 26.0791015625 11.5673828125 36.16015625 c 0
 3.85546875 46.2412109375 0 56.322265625 0 66.4033203125 c 0
 0 78.67578125 3.615234375 88.0986328125 10.8447265625 94.673828125 c 0
 18.556640625 101.686523438 30.1240234375 105.193359375 45.546875 105.193359375 c 1
 45.546875 86.345703125 52.7763671875 70.56640625 67.236328125 57.8564453125 c 0
 81.6962890625 45.1455078125 103.625976562 38.7900390625 133.02734375 38.7900390625 c 0
 152.788085938 38.7900390625 170.380859375 42.2958984375 185.803710938 49.30859375 c 0
 201.708984375 56.3212890625 214 67.7177734375 222.67578125 83.4970703125 c 0
 231.833007812 99.71484375 236.412109375 121.848632812 236.412109375 149.900390625 c 0xf8
 236.412109375 184.526367188 226.290039062 210.16796875 206.046875 226.823242188 c 0
 186.286132812 243.916992188 159.77734375 252.463867188 126.520507812 252.463867188 c 0
 101.45703125 252.463867188 82.66015625 250.9296875 70.1279296875 247.861328125 c 0
 57.5966796875 244.793945312 46.751953125 241.506835938 37.5947265625 238 c 1
 20.2431640625 242.6015625 l 1
 43.3779296875 476 l 1
 284.8515625 476 l 1
 288.465820312 376.723632812 l 1
 258.1015625 376.723632812 l 1xf4
 255.208984375 396.447265625 l 2
 253.762695312 405.651367188 250.629882812 412.4453125 245.810546875 416.829101562 c 0
 241.47265625 421.211914062 231.591796875 423.403320312 216.168945312 423.403320312 c 2
 75.912109375 423.403320312 l 1
 62.17578125 278.104492188 l 1
 69.4052734375 280.296875 80.0087890625 282.48828125 93.986328125 284.6796875 c 0
 107.963867188 287.309570312 125.555664062 288.624023438 146.763671875 288.624023438 c 0
 177.610351562 288.624023438 205.564453125 283.364257812 230.627929688 272.844726562 c 0
 255.69140625 262.763671875 275.452148438 247.423828125 289.912109375 226.823242188 c 0
 304.372070312 206.22265625 311.6015625 180.58203125 311.6015625 149.900390625 c 0
 311.6015625 120.095703125 304.612304688 93.796875 290.634765625 71.0048828125 c 0
 277.139648438 48.6513671875 257.13671875 31.119140625 230.627929688 18.408203125 c 0
 204.6015625 6.1357421875 173.272460938 0 136.641601562 0 c 0xf8
EndSplineSet
Validated: 1
EndChar

StartChar: six
Encoding: 54 54 31
Width: 390
Flags: W
HStem: 0 35.668<132.103 238.749> 254.861 33.0732<112.572 235.397> 444.872 31.1279<147.621 252.183>
VStem: 0 80.0322<106.224 232.734 254.213 353.768> 270.698 80.0332<71.6697 225.998> 273.837 60.417<386.562 422.132>
LayerCount: 2
Fore
SplineSet
182.03515625 0 m 0xf8
 146.98828125 0 115.864257812 7.998046875 88.6640625 23.9951171875 c 0
 61.462890625 40.423828125 39.7548828125 66.1474609375 23.5390625 101.166992188 c 0
 7.8466796875 136.618164062 0 182.877929688 0 239.9453125 c 0
 0 270.641601562 4.1845703125 300.040039062 12.5537109375 328.141601562 c 0
 20.923828125 356.67578125 33.4775390625 381.967773438 50.216796875 404.016601562 c 0
 66.9560546875 426.498046875 88.140625 444.006835938 113.771484375 456.544921875 c 0
 139.926757812 469.514648438 170.265625 476 204.7890625 476 c 0
 248.206054688 476 280.637695312 469.083007812 302.083984375 455.248046875 c 0
 323.530273438 441.413085938 334.25390625 425.6328125 334.25390625 407.907226562 c 0
 334.25390625 381.966796875 314.115234375 368.997070312 273.836914062 368.997070312 c 1xf4
 273.836914062 390.181640625 268.606445312 408.123046875 258.14453125 422.823242188 c 0
 247.682617188 437.522460938 229.897460938 444.872070312 204.7890625 444.872070312 c 0
 165.557617188 444.872070312 135.741210938 428.659179688 115.340820312 396.234375 c 0
 94.9404296875 364.241210938 83.4326171875 316.901367188 80.8173828125 254.212890625 c 1
 93.89453125 262.859375 109.325195312 270.641601562 127.110351562 277.55859375 c 0
 145.418945312 284.475585938 167.388671875 287.934570312 193.01953125 287.934570312 c 0
 240.62109375 287.934570312 278.806640625 276.045898438 307.576171875 252.267578125 c 0
 336.346679688 228.920898438 350.731445312 196.49609375 350.731445312 154.9921875 c 0
 350.731445312 124.295898438 343.931640625 97.275390625 330.331054688 73.9296875 c 0
 317.25390625 51.015625 298.161132812 32.857421875 273.052734375 19.455078125 c 0
 247.944335938 6.4853515625 217.604492188 0 182.03515625 0 c 0xf8
184.388671875 35.66796875 m 0
 212.112304688 35.66796875 233.297851562 44.53125 247.944335938 62.2568359375 c 0
 263.11328125 80.4140625 270.698242188 109.1640625 270.698242188 148.506835938 c 0xf8
 270.698242188 185.255859375 262.590820312 212.060546875 246.375 228.920898438 c 0
 230.682617188 246.21484375 207.666015625 254.861328125 177.327148438 254.861328125 c 0
 156.926757812 254.861328125 138.095703125 250.75390625 120.833984375 242.540039062 c 0
 104.094726562 234.7578125 90.494140625 226.327148438 80.0322265625 217.248046875 c 1
 80.5556640625 152.397460938 90.2333984375 105.921875 109.064453125 77.8203125 c 0
 127.895507812 49.71875 153.002929688 35.66796875 184.388671875 35.66796875 c 0
EndSplineSet
Validated: 1
EndChar

StartChar: seven
Encoding: 55 55 32
Width: 330
Flags: W
HStem: 0 61.4609<90.6509 110.205> 0 28.5801<28.9902 95.762 163.495 200.795> 422.666 53.334<33.3406 244.666>
VStem: 0 28<355.334 388.666>
LayerCount: 2
Fore
SplineSet
3.33203125 476 m 1xb0
 301.33203125 476 l 1
 301.33203125 456.666015625 l 1
 158.22265625 58.173828125 l 1
 159.193359375 39.2470703125 173.59765625 28.580078125 200.794921875 28.580078125 c 1
 200.794921875 0 l 1
 137.33203125 0 l 1
 87.33203125 0 l 1
 28.990234375 0 l 1
 28.990234375 28.580078125 l 1x70
 84.513671875 29.189453125 104.875 43.486328125 109.69140625 61.4609375 c 1
 110.205078125 61.447265625 l 1
 244.666015625 422.666015625 l 1
 69.33203125 422.666015625 l 2
 45.7763671875 422.666015625 32.888671875 411.333007812 30.666015625 388.666015625 c 2
 28 355.333984375 l 1
 0 355.333984375 l 1
 3.33203125 476 l 1xb0
EndSplineSet
Validated: 1
EndChar

StartChar: eight
Encoding: 56 56 33
Width: 368
Flags: W
HStem: 0 29.8311<103.715 221.513> 445.521 30.4795<110.938 213.898>
VStem: 0 67.7344<56.912 185.065> 16.0605 65.6396<313.489 423.587> 242.308 62.1484<301.689 424.589> 262.559 63.5439<60.0237 167.332>
LayerCount: 2
Fore
SplineSet
158.512695312 0 m 0xc4
 123.59765625 0 94.26953125 5.404296875 70.52734375 16.212890625 c 0
 47.2509765625 27.453125 29.5615234375 42.15234375 17.45703125 60.310546875 c 0
 5.8193359375 78.9013671875 0 99.6533203125 0 122.56640625 c 0xe4
 0 143.318359375 4.6552734375 160.828125 13.9658203125 175.095703125 c 0
 23.2763671875 189.362304688 35.845703125 201.68359375 51.673828125 212.059570312 c 0
 67.501953125 222.435546875 85.6572265625 232.163085938 106.140625 241.2421875 c 1
 79.60546875 255.077148438 57.9580078125 271.505859375 41.19921875 290.528320312 c 0
 24.4404296875 309.55078125 16.060546875 332.680664062 16.060546875 359.91796875 c 0
 16.060546875 379.805664062 21.181640625 398.612304688 31.4228515625 416.337890625 c 0
 41.6650390625 434.063476562 57.7255859375 448.331054688 79.60546875 459.138671875 c 0
 101.950195312 470.379882812 131.045898438 476 166.892578125 476 c 0
 210.651367188 476 244.40234375 465.408203125 268.14453125 444.223632812 c 0
 292.352539062 423.471679688 304.456054688 396.8828125 304.456054688 364.458007812 c 0xd8
 304.456054688 335.923828125 295.84375 313.658203125 278.619140625 297.662109375 c 0
 261.39453125 282.098632812 238.583984375 267.831054688 210.186523438 254.861328125 c 1
 244.635742188 239.729492188 272.567382812 222.219726562 293.981445312 202.33203125 c 0
 315.395507812 182.444335938 326.102539062 158.450195312 326.102539062 130.348632812 c 0
 326.102539062 89.27734375 310.740234375 57.2841796875 280.015625 34.3701171875 c 0
 249.756835938 11.45703125 209.255859375 0 158.512695312 0 c 0xc4
175.969726562 269.776367188 m 1
 202.0390625 281.881835938 219.497070312 295.284179688 228.341796875 309.983398438 c 0
 237.65234375 324.682617188 242.307617188 343.2734375 242.307617188 365.754882812 c 0
 242.307617188 378.724609375 239.747070312 391.262695312 234.626953125 403.368164062 c 0
 229.505859375 415.90625 221.125976562 426.065429688 209.48828125 433.84765625 c 0
 197.849609375 441.629882812 182.25390625 445.520507812 162.702148438 445.520507812 c 0
 136.6328125 445.520507812 116.615234375 438.170898438 102.649414062 423.471679688 c 0
 88.68359375 408.771484375 81.7001953125 390.181640625 81.7001953125 367.700195312 c 0xd8
 81.7001953125 344.354492188 89.6142578125 325.547851562 105.442382812 311.280273438 c 0
 121.270507812 297.013671875 144.779296875 283.178710938 175.969726562 269.776367188 c 1
162.00390625 29.8310546875 m 0
 192.263671875 29.8310546875 216.471679688 37.8291015625 234.626953125 53.8251953125 c 0
 253.248046875 70.25390625 262.55859375 91.0068359375 262.55859375 116.08203125 c 0
 262.55859375 138.130859375 253.248046875 157.369140625 234.626953125 173.797851562 c 0
 216.471679688 190.2265625 184.815429688 207.520507812 139.658203125 225.678710938 c 1
 117.778320312 214.4375 100.321289062 199.954101562 87.287109375 182.228515625 c 0
 74.251953125 164.935546875 67.734375 144.18359375 67.734375 119.97265625 c 0xe4
 67.734375 93.16796875 75.6484375 71.3349609375 91.4765625 54.4736328125 c 0
 107.3046875 38.044921875 130.813476562 29.8310546875 162.00390625 29.8310546875 c 0
EndSplineSet
Validated: 1
EndChar

StartChar: nine
Encoding: 57 57 34
Width: 386
Flags: W
HStem: 0 35.6191<77.5005 205.05> 185.219 38.21<108.858 234.502> 440.381 35.6191<116.271 220.414>
VStem: 0 80.8711<247.901 402.184> 270.092 80.8711<130.711 229.257 248.984 378.187>
LayerCount: 2
Fore
SplineSet
138.186523438 0 m 0
 108.3515625 0 85.05859375 2.806640625 68.30859375 8.4189453125 c 0
 52.08203125 14.03125 40.56640625 20.939453125 33.76171875 29.142578125 c 0
 27.48046875 37.77734375 24.33984375 46.6279296875 24.33984375 55.6953125 c 0
 24.33984375 63.8984375 26.6953125 70.5908203125 31.40625 75.771484375 c 0
 36.640625 81.3837890625 42.13671875 85.0537109375 47.89453125 86.78125 c 1
 55.22265625 73.3974609375 65.953125 61.5244140625 80.0859375 51.162109375 c 0
 94.7412109375 40.7998046875 114.370117188 35.619140625 138.971679688 35.619140625 c 0
 182.416992188 35.619140625 214.346679688 51.59375 234.760742188 83.54296875 c 0
 255.697265625 115.4921875 267.474609375 164.063476562 270.091796875 229.256835938 c 1
 258.577148438 218.03125 243.135742188 207.885742188 223.768554688 198.819335938 c 0
 204.924804688 189.751953125 181.893554688 185.21875 154.674804688 185.21875 c 0
 109.13671875 185.21875 71.97265625 196.228515625 43.18359375 218.247070312 c 0
 14.39453125 240.266601562 0 273.079101562 0 316.685546875 c 0
 0 347.771484375 6.54296875 375.1875 19.62890625 398.93359375 c 0
 33.23828125 423.111328125 52.60546875 441.892578125 77.73046875 455.276367188 c 0
 102.854492188 469.091796875 132.952148438 476 168.022460938 476 c 0
 203.092773438 476 234.499023438 468.444335938 262.240234375 453.333007812 c 0
 289.982421875 438.221679688 311.705078125 414.69140625 327.408203125 382.7421875 c 0
 343.111328125 350.793945312 350.962890625 309.345703125 350.962890625 258.399414062 c 0
 350.962890625 224.291992188 347.037109375 191.6953125 339.185546875 160.609375 c 0
 331.333984375 129.956054688 318.771484375 102.540039062 301.498046875 78.3623046875 c 0
 284.748046875 54.18359375 262.763671875 34.970703125 235.545898438 20.7236328125 c 0
 208.850585938 6.908203125 176.397460938 0 138.186523438 0 c 0
171.948242188 223.428710938 m 0
 197.596679688 223.428710938 218.534179688 228.609375 234.760742188 238.971679688 c 0
 251.509765625 249.765625 263.548828125 262.0703125 270.876953125 275.885742188 c 1
 269.830078125 333.307617188 259.884765625 374.970703125 241.041992188 400.875976562 c 0
 222.721679688 427.212890625 198.381835938 440.380859375 168.022460938 440.380859375 c 0
 140.280273438 440.380859375 118.819335938 430.234375 103.639648438 409.942382812 c 0
 88.4609375 390.08203125 80.87109375 361.155273438 80.87109375 323.162109375 c 0
 80.87109375 287.758789062 88.4609375 262.28515625 103.639648438 246.743164062 c 0
 118.819335938 231.200195312 141.588867188 223.428710938 171.948242188 223.428710938 c 0
EndSplineSet
Validated: 1
EndChar

StartChar: zero
Encoding: 48 48 35
Width: 424
Flags: W
HStem: 0 35.0195<137.624 249.679> 440.981 35.0186<138.03 250.08>
VStem: 0 85.7979<108.544 368.825> 301.116 85.7979<112.65 364.117>
LayerCount: 2
Fore
SplineSet
193.869140625 0 m 0
 148.770507812 0 111.921875 9.943359375 83.322265625 29.8310546875 c 0
 54.7236328125 49.71875 33.548828125 77.6044921875 19.7998046875 113.48828125 c 0
 6.599609375 149.372070312 0 191.307617188 0 239.296875 c 0
 0 287.286132812 6.599609375 329.006835938 19.7998046875 364.458007812 c 0
 33.548828125 399.909179688 54.7236328125 427.362304688 83.322265625 446.817382812 c 0
 111.921875 466.272460938 149.045898438 476 194.694335938 476 c 0
 237.59375 476 273.067382812 466.272460938 301.116210938 446.817382812 c 0
 329.715820312 427.362304688 351.165039062 399.693359375 365.46484375 363.809570312 c 0
 379.764648438 328.357421875 386.9140625 286.637695312 386.9140625 238.6484375 c 0
 386.9140625 190.659179688 379.764648438 148.72265625 365.46484375 112.838867188 c 0
 351.165039062 77.3876953125 329.715820312 49.71875 301.116210938 29.8310546875 c 0
 272.517578125 9.943359375 236.768554688 0 193.869140625 0 c 0
193.869140625 35.01953125 m 0
 234.018554688 35.01953125 261.79296875 52.9609375 277.192382812 88.8447265625 c 0
 293.141601562 124.728515625 301.116210938 174.663085938 301.116210938 238.6484375 c 0
 301.116210938 302.633789062 293.141601562 352.352539062 277.192382812 387.803710938 c 0
 261.79296875 423.255859375 234.29296875 440.981445312 194.694335938 440.981445312 c 0
 154.545898438 440.981445312 126.221679688 423.255859375 109.721679688 387.803710938 c 0
 93.7724609375 352.352539062 85.7978515625 302.633789062 85.7978515625 238.6484375 c 0
 85.7978515625 174.663085938 93.7724609375 124.728515625 109.721679688 88.8447265625 c 0
 125.671875 52.9609375 153.720703125 35.01953125 193.869140625 35.01953125 c 0
EndSplineSet
Validated: 1
EndChar

StartChar: a
Encoding: 97 97 36
Width: 454
Flags: W
HStem: 0 45<118.555 231.745> 0 37<380.333 414> 224 36<182.37 325> 408 44<219.243 340.089>
VStem: 123 65<332.379 375.502>
LayerCount: 2
Fore
SplineSet
137 0 m 0xb8
 98 0 67 10 46 32 c 4
 26 54 22 96 33 142 c 0
 43 186 63 202 101 223 c 0
 139 244 193 260 260 260 c 1
 333 260 l 1
 344 308 l 2
 349 328 351 345 351 360 c 0
 351 375 346 387 337 395 c 0
 327 404 311 408 287 408 c 0
 266 408 248 404 235 397 c 0
 221 390 211 379 203 365 c 0
 197 352 192 337 188 320 c 1
 163 320 144 323 134 332 c 0
 123 340 119 354 123 372 c 0
 127 391 139 407 156 418 c 0
 174 430 193 439 218 444 c 0
 244 450 271 452 300 452 c 0
 354 452 391 442 413 420 c 0
 435 398 440 361 428 309 c 2
 378 96 l 2
 373 73 374 57 380 49 c 0
 387 40 400 37 420 37 c 2
 422 37 l 1
 414 0 l 1
 295 0 l 1x78
 297 73 l 1
 290 73 l 1
 274 57 261 42 244 30 c 0
 228 18 218 15 199 7 c 0
 182 3 160 0 137 0 c 0xb8
168 45 m 0xb8
 203 45 235 55 260 76 c 0
 285 97 302 124 310 159 c 2
 325 224 l 1
 270 224 l 1
 220 224 183 210 159 193 c 0
 137 177 123 154 115 121 c 0
 103 71 121 45 168 45 c 0xb8
EndSplineSet
EndChar

StartChar: b
Encoding: 98 98 37
Width: 551
Flags: W
HStem: 0 46<225.471 363.85> 408 54<319.56 438.017> 607 36<148 203.811>
LayerCount: 2
Fore
SplineSet
300 0 m 4
 266 0 237 -2 219 12 c 4
 201 26 188 44 180 66 c 1
 165 0 l 1
 79 0 l 1
 206 550 l 2
 212 575 208 590 195 597 c 0
 182 604 167 607 147 607 c 2
 140 607 l 1
 148 643 l 1
 313 643 l 1
 277 487 l 2
 275 477 270 465 267 450 c 0
 264 435 260 422 257 408 c 0
 254 394 250 383 248 377 c 1
 252 377 l 1
 271 403 292 424 317 439 c 0
 342 454 372 462 407 462 c 0
 466 462 505 443 527 405 c 0
 550 368 552 309 533 228 c 0
 514 146 485 86 445 48 c 0
 405 10 359 0 300 0 c 4
295 46 m 0
 334 46 365 61 388 92 c 0
 413 124 431 169 445 228 c 0
 459 288 461 333 451 363 c 0
 442 393 417 408 378 408 c 0
 333 408 298 393 274 363 c 0
 250 334 232 288 218 228 c 0
 204 169 201 124 211 92 c 0
 221 61 249 46 295 46 c 0
EndSplineSet
EndChar

StartChar: c
Encoding: 99 99 38
Width: 465
Flags: W
HStem: 0 56<170.97 341.054> 323 121<374.945 449.067> 411 43<237.211 364.545>
VStem: 371 96<328.555 403.684>
LayerCount: 2
Fore
SplineSet
221 0 m 0xb0
 177 0 142 8 112 23 c 0
 83 38 62 62 50 95 c 0
 39 128 40 171 52 224 c 0
 66 283 85 329 111 362 c 0
 139 395 170 419 205 432 c 0
 241 446 280 454 321 454 c 0xb0
 348 454 374 450 398 444 c 0
 423 438 442 429 456 417 c 0
 470 405 471 389 467 371 c 0
 463 352 454 332 437 323 c 4xd0
 421 315 399 318 371 318 c 5
 377 343 375 365 368 383 c 0
 361 402 343 411 311 411 c 0
 287 411 265 405 244 394 c 0
 224 384 206 365 189 338 c 0
 174 312 159 275 148 226 c 0
 135 169 136 126 152 98 c 0
 169 70 203 56 254 56 c 0
 284 56 312 61 336 71 c 0
 361 82 380 95 395 112 c 1
 405 104 407 94 404 79 c 0
 401 66 392 55 377 43 c 0
 362 30 342 21 315 12 c 0
 290 4 258 0 221 0 c 0xb0
EndSplineSet
EndChar

StartChar: d
Encoding: 100 100 39
Width: 509
Flags: W
HStem: -11 52<344 422.509> 0 46<141.283 265.75> 408 54<216.585 344.954> 607 36<374 426.308>
LayerCount: 2
Fore
SplineSet
171 0 m 0x70
 116 0 76 10 55 47 c 0
 34 85 33 145 52 226 c 0
 71 308 100 367 138 405 c 0
 176 443 223 462 278 462 c 0
 311 462 335 455 353 441 c 0
 371 427 382 409 389 387 c 1
 395 387 l 1
 397 402 397 417 401 434 c 0
 405 452 408 467 411 481 c 2
 427 550 l 2
 433 575 430 591 418 597 c 0
 406 604 391 607 372 607 c 2
 366 607 l 1
 374 643 l 1
 529 643 l 1
 410 124 l 2
 406 105 397 67 396 57 c 0
 396 49 404 41 411 41 c 0
 420 41 438 53 452 74 c 2
 486 124 l 1
 499 112 l 1
 445 20 410 -11 365 -11 c 0xb0
 323 -11 312 26 318 76 c 1
 300 50 279 30 255 14 c 0
 231 -1 205 0 171 0 c 0x70
198 46 m 0x70
 241 46 274 60 297 90 c 0
 320 120 338 165 352 226 c 0
 366 285 368 329 359 360 c 0
 350 392 325 408 281 408 c 0
 244 408 214 392 191 360 c 0
 168 329 150 284 136 225 c 0
 122 165 119 120 129 91 c 0
 137 61 160 46 198 46 c 0x70
EndSplineSet
EndChar

StartChar: e
Encoding: 101 101 40
Width: 437
Flags: W
HStem: 0 54<160.726 322.266> 219 46<152 360.275> 406 46<225.872 348.024>
LayerCount: 2
Fore
SplineSet
209 0 m 0
 144 0 96 20 68 59 c 0
 40 98 36 152 52 223 c 0
 69 298 99 356 142 394 c 0
 186 433 241 452 305 452 c 0
 363 452 404 435 430 403 c 0
 455 370 462 321 447 256 c 2
 438 219 l 1
 140 219 l 1
 127 161 130 119 146 93 c 0
 162 67 192 54 234 54 c 0
 265 54 294 60 317 71 c 0
 342 82 361 95 375 110 c 1
 379 108 383 105 385 100 c 0
 387 94 388 89 386 82 c 0
 383 70 375 59 361 46 c 0
 347 33 326 22 300 13 c 4
 274 4 245 0 209 0 c 0
152 265 m 1
 356 265 l 1
 366 307 366 341 357 367 c 0
 349 393 327 406 292 406 c 0
 259 406 232 394 208 369 c 0
 185 346 162 310 152 265 c 1
EndSplineSet
EndChar

StartChar: f
Encoding: 102 102 41
Width: 343
Flags: W
HStem: -200 41<-57.4676 20.773> 411 41<106 166 249 347> 645 41<308.918 383.57>
DStem2: 60 -49 135 -42 0.224347 0.974509<-81.431 472.055 530.631 686.951>
LayerCount: 2
Fore
SplineSet
135 -42 m 2
 123 -93 102 -132 72 -159 c 0
 40 -186 3 -200 -39 -200 c 0
 -80 -200 -106 -194 -119 -182 c 0
 -133 -171 -138 -158 -134 -139 c 0
 -130 -123 -121 -112 -107 -103 c 0
 -94 -95 -77 -91 -58 -91 c 1
 -62 -107 -62 -124 -58 -138 c 0
 -54 -151 -43 -159 -23 -159 c 0
 -2 -159 16 -149 28 -130 c 0
 41 -112 52 -85 60 -49 c 2
 166 411 l 1
 97 411 l 1
 106 452 l 1
 175 452 l 1
 187 503 l 2
 201 562 223 607 254 638 c 0
 287 669 325 686 367 686 c 0
 408 686 434 679 447 666 c 0
 461 654 465 638 460 617 c 0
 456 600 447 587 432 577 c 0
 418 568 402 564 383 564 c 1
 387 583 389 603 385 620 c 0
 382 636 371 645 351 645 c 0
 330 645 312 634 299 611 c 0
 285 589 273 556 263 514 c 2
 249 452 l 1
 357 452 l 1
 347 411 l 1
 240 411 l 1
 135 -42 l 2
EndSplineSet
EndChar

StartChar: g
Encoding: 103 103 42
Width: 461
Flags: W
HStem: -200 43<61.0608 241.197> 10 79<141.24 292.432> 170 42<187.938 289.871> 429 62<412.267 486.881> 429 44<228.176 329.673>
LayerCount: 2
Fore
SplineSet
121 -200 m 0xf0
 66 -200 27 -188 4 -166 c 0
 -19 -145 -26 -115 -17 -76 c 0
 -9 -42 6 -16 30 1 c 0
 54 18 81 29 110 34 c 1
 100 39 92 48 85 60 c 0
 79 72 77 87 81 105 c 0
 85 123 93 137 104 150 c 0
 116 163 132 174 153 186 c 1
 132 196 118 213 111 236 c 0
 103 260 102 285 109 314 c 0
 120 362 142 401 174 429 c 0
 206 459 246 473 296 473 c 0xe8
 316 473 333 470 349 464 c 0
 365 458 376 451 381 443 c 1
 391 453 403 463 419 474 c 0
 436 486 452 491 471 491 c 0
 487 491 498 486 503 477 c 0
 509 468 511 457 508 444 c 0
 505 432 499 423 490 413 c 0
 482 404 470 401 455 401 c 1
 457 408 456 413 454 420 c 0
 452 427 446 429 435 429 c 0
 422 429 409 427 397 420 c 1
 404 408 408 393 410 377 c 0
 413 362 411 341 405 316 c 0
 395 275 376 240 346 212 c 0
 316 184 276 170 227 170 c 0
 221 170 215 170 206 170 c 0
 197 170 192 173 187 174 c 1
 175 168 165 162 155 152 c 0
 146 143 139 133 136 121 c 0
 134 111 136 104 141 98 c 0
 146 92 159 89 179 89 c 2
 270 89 l 2
 317 89 348 76 363 53 c 0
 378 29 381 -2 372 -39 c 0
 361 -89 335 -127 294 -156 c 0
 252 -185 195 -200 121 -200 c 0xf0
235 212 m 0
 261 212 281 221 295 238 c 0
 310 255 321 282 329 318 c 0
 338 356 339 384 332 402 c 0
 326 420 310 429 284 429 c 0
 258 429 238 420 223 402 c 0
 207 383 196 355 187 317 c 0
 179 281 178 255 185 238 c 0
 193 221 209 212 235 212 c 0
133 -157 m 0
 171 -157 202 -153 225 -143 c 4
 248 -135 265 -123 277 -107 c 0
 289 -92 297 -74 302 -54 c 0
 308 -28 305 -12 293 -2 c 0
 281 6 262 10 235 10 c 2
 157 10 l 2
 142 10 127 9 113 5 c 0
 99 0 86 -8 75 -19 c 0
 64 -30 56 -47 51 -69 c 0
 47 -86 46 -102 49 -114 c 0
 51 -127 59 -137 73 -145 c 0
 86 -153 106 -157 133 -157 c 0
EndSplineSet
EndChar

StartChar: h
Encoding: 104 104 43
Width: 528
Flags: W
HStem: -12 50<350 428.908> 0 21G<68 145.649> 408 54<284.534 377.637> 607 36<148 194.655>
LayerCount: 2
Fore
SplineSet
141 0 m 1x70
 68 0 l 1x70
 195 550 l 2
 201 575 198 591 187 597 c 0
 177 604 162 607 146 607 c 2
 140 607 l 1
 148 643 l 1
 290 643 l 1
 247 457 l 2
 245 447 242 436 239 425 c 4
 235 413 233 404 230 396 c 2
 228 385 l 1
 230 385 l 1
 265 436 308 462 360 462 c 0
 403 462 433 449 450 422 c 0
 466 396 468 354 455 296 c 2
 415 122 l 2
 410 102 403 64 401 53 c 0
 401 46 409 38 416 38 c 0
 424 38 441 48 453 66 c 2
 491 120 l 1
 502 108 l 1
 450 20 417 -12 375 -12 c 0xb0
 325 -12 325 49 344 130 c 1
 382 292 l 2
 391 329 390 357 382 377 c 0
 375 398 357 408 326 408 c 0
 295 408 269 395 248 371 c 0
 228 346 213 312 204 271 c 2
 141 0 l 1x70
EndSplineSet
EndChar

StartChar: i
Encoding: 105 105 44
Width: 313
Flags: W
HStem: -11 56<126.5 212.38> 372 31<93 159.851> 452 136<212.917 281.5>
VStem: 186 122<477.985 561.516>
LayerCount: 2
Fore
SplineSet
263 588 m 0
 295 588 317 559 308 521 c 0
 300 485 270 452 234 452 c 0
 191 452 178 485 186 521 c 0
 195 562 231 588 263 588 c 0
93 403 m 1
 268 403 l 1
 250 325 l 1
 203 122 l 2
 199 105 193 69 192 60 c 0
 192 53 199 45 207 45 c 0
 217 45 235 58 251 81 c 2
 281 123 l 1
 296 112 l 1
 240 20 206 -11 158 -11 c 0
 95 -11 100 56 116 123 c 2
 163 323 l 2
 168 344 164 358 150 364 c 4
 136 370 119 372 98 372 c 2
 86 372 l 1
 93 403 l 1
EndSplineSet
EndChar

StartChar: j
Encoding: 106 106 45
Width: 266
Flags: W
HStem: -200 38<-19 37.9868> 387 34<140 170.53> 501 99<237.47 288.301>
VStem: 219 81<512.378 588.667>
LayerCount: 2
Fore
SplineSet
247 501 m 0
 236 501 226 505 220 512 c 0
 214 520 215 532 219 551 c 0
 223 569 227 582 237 589 c 0
 247 596 259 600 270 600 c 0
 282 600 290 596 296 589 c 0
 302 582 304 569 300 551 c 0
 296 532 288 520 278 512 c 0
 268 505 259 501 247 501 c 0
-46 -200 m 1
 -19 -162 l 1
 -13 -162 l 2
 3 -162 18 -158 31 -149 c 0
 45 -140 57 -125 68 -104 c 0
 79 -83 89 -53 98 -15 c 2
 178 333 l 2
 183 356 181 371 171 378 c 0
 161 384 149 387 134 387 c 2
 132 387 l 1
 140 421 l 1
 265 421 l 1
 165 -14 l 2
 154 -62 139 -100 121 -126 c 0
 103 -154 82 -173 59 -183 c 4
 36 -194 11 -200 -16 -200 c 2
 -46 -200 l 1
EndSplineSet
EndChar

StartChar: k
Encoding: 107 107 46
Width: 500
Flags: W
HStem: -12 47<338.5 399.163> 0 21G<65 140.643> 418 35<332 349.763 435.341 484> 607 36<148 192.443>
DStem2: 65 0 136 0 0.225745 0.974187<16.0279 188.495 230.766 610.005> 298 272 239 215 0.32508 -0.945687<34.7244 252.639> 299 326 298 272 0.713124 0.701038<-38.5692 92.8941>
LayerCount: 2
Fore
SplineSet
136 0 m 1x70
 65 0 l 1x70
 192 550 l 2
 198 575 196 591 185 597 c 0
 175 604 161 607 146 607 c 2
 140 607 l 1
 148 643 l 1
 285 643 l 1
 209 316 l 2
 207 309 205 299 202 287 c 0
 199 275 195 263 192 251 c 0
 189 239 187 230 184 222 c 2
 181 210 l 1
 299 326 l 2
 319 346 333 362 340 372 c 0
 349 384 354 393 356 401 c 0
 358 408 356 413 350 415 c 0
 345 417 336 418 324 418 c 1
 332 453 l 1
 492 453 l 1
 484 418 l 1
 468 418 449 411 430 397 c 0
 410 383 389 364 364 339 c 2
 298 272 l 1
 375 48 l 2
 377 42 380 35 386 35 c 0
 393 35 409 43 419 58 c 2
 459 117 l 1
 470 106 l 1
 421 20 386 -12 347 -12 c 0xb0
 330 -12 315 -7 306 9 c 2
 239 215 l 1
 175 168 l 1
 136 0 l 1x70
EndSplineSet
EndChar

StartChar: l
Encoding: 108 108 47
Width: 276
Flags: W
HStem: -12 48<104.5 180.818> 607 36<148 196.443>
DStem2: 100 130 153 52 0.22269 0.974889<-76.3745 476.614>
LayerCount: 2
Fore
SplineSet
168 122 m 2
 163 101 155 63 153 52 c 0
 153 45 161 36 168 36 c 0
 176 36 192 46 203 62 c 2
 241 119 l 1
 252 107 l 1
 201 20 169 -12 128 -12 c 0
 81 -12 81 47 100 130 c 2
 196 550 l 2
 202 575 200 591 189 597 c 0
 179 604 167 607 150 607 c 2
 140 607 l 1
 148 643 l 1
 288 643 l 1
 168 122 l 2
EndSplineSet
EndChar

StartChar: m
Encoding: 109 109 48
Width: 746
Flags: W
HStem: -12 51<601.5 683.486> 0 21G<70 150.627 320 401.571> 404 60<298.582 383.484 541.059 629.969> 415 49<133.301 192.497>
VStem: 160 72<382 413.598>
LayerCount: 2
Fore
SplineSet
146 0 m 1x68
 70 0 l 1x68
 147 334 l 2
 151 353 158 390 160 400 c 0
 160 407 153 415 146 415 c 0
 138 415 122 405 110 388 c 2
 73 337 l 1
 61 347 l 1
 112 433 146 464 188 464 c 0
 225 464 237 431 232 382 c 1
 235 382 l 1
 259 414 282 435 304 445 c 0
 326 456 350 461 374 461 c 0
 399 461 420 456 438 443 c 0
 456 431 467 411 470 382 c 1
 477 382 l 1
 500 414 523 435 547 445 c 0
 571 456 595 461 619 461 c 0
 660 461 687 448 703 421 c 0
 720 395 723 354 710 296 c 2
 669 119 l 2
 665 100 657 64 656 54 c 0
 656 47 664 39 671 39 c 0
 680 39 696 49 709 67 c 2
 745 117 l 1
 757 106 l 1
 705 20 671 -12 628 -12 c 0x98
 575 -12 577 49 595 125 c 1
 633 290 l 2
 641 327 641 354 634 374 c 0
 627 394 607 404 576 404 c 0
 555 404 537 398 521 386 c 0
 506 376 494 361 483 341 c 0
 474 322 466 302 461 280 c 2
 397 0 l 1
 320 0 l 1
 387 289 l 2
 396 326 395 354 388 374 c 0
 381 394 361 404 331 404 c 0
 308 404 289 397 272 385 c 0
 256 373 243 356 233 335 c 0
 222 314 214 293 208 268 c 2
 146 0 l 1x68
EndSplineSet
EndChar

StartChar: n
Encoding: 110 110 49
Width: 582
Flags: W
HStem: -11 55<409 499.329> 0 21G<79 171.627> 407 56<147.62 206.997 321.774 426.273>
LayerCount: 2
Fore
SplineSet
167 0 m 1x60
 79 0 l 1x60
 156 331 l 2
 160 348 166 383 167 392 c 0
 167 399 160 407 152 407 c 0
 142 407 124 394 108 371 c 2
 78 329 l 1
 63 341 l 1
 119 433 154 463 202 463 c 0
 247 463 260 428 256 382 c 1
 282 414 307 436 332 446 c 0
 358 457 385 461 413 461 c 0
 460 461 493 447 514 421 c 0
 535 395 538 355 525 297 c 2
 484 121 l 2
 480 104 474 68 473 59 c 0
 473 52 480 44 488 44 c 0
 498 44 515 57 531 79 c 2
 562 122 l 1
 577 111 l 1
 522 20 487 -11 440 -11 c 0xa0
 378 -11 384 56 400 125 c 1
 438 290 l 2
 446 327 445 354 435 374 c 0
 425 394 403 404 367 404 c 0
 340 404 317 397 298 385 c 0
 280 373 265 356 253 335 c 0
 241 314 235 293 229 268 c 2
 167 0 l 1x60
EndSplineSet
EndChar

StartChar: o
Encoding: 111 111 50
Width: 426
Flags: W
HStem: 0 35<134.844 270.057> 417 35<214.788 352.061>
LayerCount: 2
Fore
SplineSet
295 452 m 0
 337 452 371 443 395 424 c 0
 418 405 434 378 440 345 c 0
 446 311 444 271 433 225 c 0
 422 179 407 139 385 106 c 0
 363 73 336 46 304 28 c 0
 271 9 233 0 191 0 c 0
 148 0 114 9 91 28 c 0
 67 47 52 73 46 107 c 0
 40 141 41 181 52 227 c 0
 63 273 79 313 101 346 c 0
 123 379 149 406 182 424 c 0
 215 443 253 452 295 452 c 0
287 417 m 1
 243 417 201 400 174 366 c 0
 148 333 128 286 114 226 c 0
 100 166 98 120 109 86 c 0
 120 52 155 35 199 35 c 0
 243 35 284 52 311 86 c 0
 337 119 357 166 371 226 c 0
 385 286 387 333 376 367 c 4
 365 401 332 417 287 417 c 1
EndSplineSet
EndChar

StartChar: p
Encoding: 112 112 51
Width: 501
Flags: W
HStem: -200 21G<32 116.556> 0 50<213.419 348.344> 360 50<292.744 410.701> 369 33<93 145.821>
LayerCount: 2
Fore
SplineSet
112 -200 m 1xe0
 32 -200 l 1
 151 318 l 2
 151 318 152 354 140 360 c 0xe0
 129 366 114 369 96 369 c 2
 85 369 l 1
 93 402 l 1
 238 402 l 1xd0
 232 334 l 1
 235 334 l 1
 253 357 272 376 295 390 c 0
 318 404 346 410 379 410 c 0
 433 410 471 394 492 360 c 0
 514 327 516 274 500 204 c 0
 484 133 457 82 420 50 c 0
 384 17 338 0 284 0 c 0
 252 0 228 7 210 19 c 0
 193 32 182 48 174 68 c 1
 170 68 l 1
 167 53 166 37 162 20 c 0
 158 3 153 -20 153 -20 c 2
 112 -200 l 1xe0
282 50 m 0
 318 50 346 63 367 90 c 0
 389 117 406 156 418 207 c 0
 430 258 431 296 421 322 c 0
 412 347 388 360 352 360 c 0
 309 360 277 347 255 322 c 0
 234 297 217 258 205 206 c 0
 193 156 193 117 202 90 c 0
 212 63 238 50 282 50 c 0
EndSplineSet
EndChar

StartChar: q
Encoding: 113 113 52
Width: 506
Flags: W
HStem: -200 21G<249 333.595> 0 50<137.512 256.497> 360 51<197.365 334.602> 369 33<479.658 537>
LayerCount: 2
Fore
SplineSet
329 -200 m 1xe0
 249 -200 l 1
 290 -20 l 2
 290 -20 296 3 300 20 c 0
 304 37 309 53 314 68 c 1
 311 68 l 1
 294 48 274 32 252 19 c 0
 229 7 201 0 169 0 c 0
 115 0 77 17 56 50 c 0
 34 82 31 133 47 204 c 0
 63 274 90 327 127 360 c 0
 163 394 210 411 264 411 c 0xe0
 296 411 320 404 337 390 c 0
 353 376 365 357 372 334 c 1
 376 334 l 1
 399 402 l 1
 545 402 l 1
 537 369 l 1
 527 369 l 2xd0
 509 369 493 366 479 360 c 0
 464 354 448 318 448 318 c 2
 329 -200 l 1xe0
194 50 m 0
 237 50 270 63 292 90 c 0
 314 117 330 156 342 206 c 0
 354 258 355 297 345 322 c 0
 335 347 310 360 267 360 c 0
 230 360 201 347 180 322 c 0
 159 296 143 258 131 207 c 0
 119 156 118 117 127 90 c 0
 136 63 158 50 194 50 c 0
EndSplineSet
EndChar

StartChar: r
Encoding: 114 114 53
Width: 363
Flags: W
HStem: 0 21G<64 143.574> 402 62<284.621 354.427> 415 49<127.12 202.5>
LayerCount: 2
Fore
SplineSet
139 0 m 1xc0
 64 0 l 1
 141 334 l 2
 145 353 152 390 154 400 c 0
 154 407 147 415 140 415 c 0
 132 415 115 405 103 388 c 2
 67 336 l 1
 55 347 l 1
 106 433 140 464 182 464 c 0xa0
 223 464 231 424 222 366 c 1
 233 384 244 399 255 413 c 0
 266 428 279 439 293 448 c 0
 308 456 327 461 349 461 c 0
 376 461 395 456 406 445 c 0
 417 434 421 418 416 398 c 0
 412 381 403 367 389 355 c 0
 376 343 357 337 331 337 c 1
 336 360 338 377 333 386 c 0
 330 397 321 402 306 402 c 0
 291 402 279 396 266 384 c 0
 254 372 242 356 233 337 c 0
 223 318 213 299 206 278 c 0
 199 258 194 239 190 223 c 2
 139 0 l 1xc0
EndSplineSet
EndChar

StartChar: s
Encoding: 115 115 54
Width: 334
Flags: W
HStem: 0 41<87.6404 200.835> 413 39<174.499 273.623>
VStem: 276 65<340.471 390.292>
LayerCount: 2
Fore
SplineSet
124 0 m 0
 86 0 57 8 39 22 c 0
 20 37 13 58 20 87 c 0
 23 101 29 112 36 121 c 0
 43 130 51 136 60 139 c 0
 68 142 75 143 81 143 c 1
 74 115 75 91 82 71 c 0
 89 51 108 41 138 41 c 0
 164 41 185 48 202 62 c 0
 220 75 231 93 236 115 c 0
 239 129 238 139 235 148 c 4
 232 157 225 164 214 173 c 0
 203 182 187 193 165 204 c 0
 142 215 124 228 110 239 c 0
 96 251 86 264 82 279 c 0
 78 294 78 314 83 338 c 0
 92 375 111 403 141 422 c 0
 171 442 208 452 250 452 c 0
 286 452 312 444 327 429 c 0
 342 415 346 397 341 377 c 0
 338 363 331 350 319 340 c 0
 307 331 293 328 276 328 c 1
 282 354 282 376 275 391 c 0
 268 406 253 413 232 413 c 0
 207 413 188 406 174 394 c 0
 161 382 151 367 147 348 c 0
 142 327 146 311 157 300 c 0
 169 290 190 276 220 262 c 0
 243 250 262 238 276 226 c 0
 289 215 298 200 302 185 c 0
 306 169 305 151 300 128 c 0
 290 85 270 53 237 31 c 0
 205 10 168 0 124 0 c 0
EndSplineSet
EndChar

StartChar: t
Encoding: 116 116 55
Width: 298
Flags: W
HStem: 0 46<160.332 236.669> 402 50<234 320> 402 35<101 148.962>
LayerCount: 2
Fore
SplineSet
167 0 m 0xa0
 135 0 102 9 89 28 c 0
 76 47 75 80 86 127 c 2
 149 402 l 1
 93 402 l 1
 101 437 l 1xa0
 110 437 116 438 131 438 c 0
 147 438 194 492 200 516 c 0
 205 536 209 556 215 583 c 1
 264 583 l 1
 234 452 l 1
 331 452 l 1
 320 402 l 1xc0
 222 402 l 1
 159 128 l 2
 153 100 153 79 160 66 c 0
 167 53 179 46 196 46 c 0
 205 46 215 47 222 48 c 0
 230 49 238 51 246 52 c 1
 237 14 l 1
 230 10 219 7 205 4 c 4
 191 1 185 0 167 0 c 0xa0
EndSplineSet
EndChar

StartChar: u
Encoding: 117 117 56
Width: 560
Flags: W
HStem: -9 57<197.366 307.44> 0 37<459.155 509> 409 54<134.727 222.5> 432 20G<452.373 541>
LayerCount: 2
Fore
SplineSet
214 -9 m 0x80
 168 -9 135 4 117 30 c 0
 98 56 96 98 109 156 c 2
 150 332 l 2
 154 350 161 385 162 394 c 0
 162 401 155 409 147 409 c 0
 137 409 120 398 105 377 c 2
 73 332 l 1
 59 343 l 1
 113 433 147 463 193 463 c 0
 252 463 248 398 232 327 c 1
 194 162 l 2
 186 125 185 98 193 78 c 0
 200 58 222 48 256 48 c 0xa0
 294 48 324 60 347 85 c 0
 370 110 386 143 395 184 c 2
 457 452 l 1
 541 452 l 1
 458 94 l 2
 452 69 456 53 468 46 c 0
 481 40 496 37 515 37 c 2
 518 37 l 1
 509 0 l 1
 371 0 l 1x50
 375 71 l 1
 371 71 l 1
 346 39 321 17 294 6 c 0
 268 -4 242 -9 214 -9 c 0x80
EndSplineSet
EndChar

StartChar: v
Encoding: 118 118 57
Width: 521
Flags: W
HStem: 0 21G<201.084 266.225> 385 80<482.922 560.539> 417 47<119.177 182.5>
LayerCount: 2
Fore
SplineSet
204 0 m 1xc0
 147 391 l 2
 145 403 l 0
 144 410 141 417 134 417 c 0
 127 417 110 409 100 394 c 2
 61 338 l 1
 50 349 l 1
 99 434 132 464 171 464 c 0xa0
 194 464 211 452 214 428 c 0
 222 372 l 2
 249 166 l 2
 251 147 253 129 254 111 c 0
 255 94 256 76 256 61 c 1
 263 76 271 93 279 111 c 0
 288 128 300 146 312 166 c 2
 433 368 l 2
 436 373 438 377 440 382 c 0
 442 386 l 0
 482 453 502 465 535 465 c 0
 564 465 584 444 584 412 c 0
 583 385 567 365 546 365 c 0
 537 365 528 368 515 376 c 0
 507 382 500 385 495 385 c 0
 485 385 482 374 469 352 c 0
 482 373 l 2
 254 0 l 5
 204 0 l 1xc0
EndSplineSet
EndChar

StartChar: w
Encoding: 119 119 58
Width: 602
Flags: W
HStem: 0 21G<144.488 204.375 365.659 424.572> 401 63<614.683 682.231> 424 41<109.315 165>
VStem: 135 59<117.3 423.993> 145 50<61 273.7> 360 51<61.6592 352>
LayerCount: 2
Fore
SplineSet
145 0 m 1xcc
 135 391 l 2
 135 408 l 0
 135 415 130 424 123 424 c 0
 118 424 103 418 96 409 c 2
 51 345 l 1
 43 355 l 1
 88 434 121 465 155 465 c 0
 175 465 191 450 193 418 c 0
 194 372 l 2xb4
 198 169 l 2
 198 150 197 131 197 113 c 0
 197 94 197 76 196 61 c 1
 203 78 210 97 218 116 c 0
 227 136 235 155 244 175 c 2
 372 447 l 1
 411 447 l 1
 416 173 l 2
 416 151 415 132 415 113 c 0
 415 93 414 75 413 61 c 1
 420 76 427 93 434 110 c 0
 441 127 449 145 459 166 c 2
 553 362 l 2
 555 367 557 372 560 379 c 0
 563 383 573 387 576 391 c 0
 619 452 630 464 657 464 c 0
 683 464 700 447 700 419 c 0
 699 397 687 381 670 381 c 0
 663 381 653 385 642 392 c 0
 633 398 625 401 620 401 c 0
 612 401 601 392 588 371 c 0
 585 366 587 359 585 355 c 0
 594 374 l 2
 415 0 l 1
 366 0 l 1
 360 352 l 1
 195 0 l 5
 145 0 l 1xcc
EndSplineSet
EndChar

StartChar: x
Encoding: 120 120 59
Width: 478
Flags: W
HStem: -12 68<-0.963823 69.3265> -12 42<328 383.225> 396 68<414.563 484.964> 422 42<124.516 180>
LayerCount: 2
Fore
SplineSet
69 9 m 2x60
 54 -8 41 -12 24 -12 c 0
 -3 -12 -20 6 -20 35 c 0
 -19 58 -6 75 12 75 c 0
 19 75 29 72 41 65 c 0
 50 59 58 56 63 56 c 0
 69 56 73 61 80 69 c 2
 220 222 l 1
 158 391 l 2
 152 409 l 0
 150 415 146 422 140 422 c 0
 134 422 119 415 111 404 c 2
 68 344 l 1
 59 354 l 1
 105 434 137 464 173 464 c 0x90
 187 464 202 461 208 447 c 0
 236 369 l 2
 270 277 l 1
 349 368 l 2
 415 443 l 0
 430 460 443 464 460 464 c 0
 487 464 504 446 504 417 c 0
 503 394 490 377 472 377 c 0
 465 377 455 381 443 388 c 0
 434 394 427 396 422 396 c 0
 416 396 412 391 405 383 c 0
 400 378 l 2
 281 248 l 1
 357 43 l 2
 359 37 362 30 368 30 c 0
 374 30 389 37 397 48 c 2
 440 109 l 1
 449 99 l 1
 403 19 371 -12 335 -12 c 0
 321 -12 305 -8 300 6 c 2
 231 192 l 1
 69 9 l 2x60
EndSplineSet
EndChar

StartChar: y
Encoding: 121 121 60
Width: 489
Flags: W
HStem: -200 41<-11 72.2412> 396 93<458.769 535.764> 440 48<118.427 183>
LayerCount: 2
Fore
SplineSet
-21 -200 m 1xc0
 -11 -159 l 1
 23 -159 52 -151 77 -136 c 0
 103 -121 125 -100 144 -74 c 0
 164 -48 179 -33 195 0 c 1
 147 398 l 2
 144 424 l 0
 143 431 139 440 132 440 c 0
 124 440 108 430 97 414 c 2
 58 358 l 1
 47 369 l 1
 97 456 131 488 171 488 c 0xa0
 195 488 212 475 215 449 c 0
 224 370 l 2
 243 213 l 2
 245 200 245 185 246 169 c 0
 247 153 249 137 249 122 c 0
 250 107 249 95 249 86 c 1
 256 102 265 120 275 138 c 0
 285 157 295 175 304 192 c 2
 394 364 l 2
 414 401 l 0
 454 475 476 489 512 489 c 0
 543 489 563 466 563 430 c 0
 562 399 544 374 519 374 c 0
 509 374 499 378 485 387 c 0
 477 393 472 396 467 396 c 0
 454 396 453 384 438 356 c 0
 449 376 l 2
 249 7 l 2
 226 -36 205 -71 187 -98 c 0
 169 -125 151 -145 133 -160 c 0
 115 -175 94 -186 70 -192 c 0
 47 -197 19 -200 -14 -200 c 6
 -21 -200 l 1xc0
EndSplineSet
EndChar

StartChar: z
Encoding: 122 122 61
Width: 395
Flags: W
HStem: 0 33<88 291.574> 419 33<156.533 338>
LayerCount: 2
Fore
SplineSet
0 0 m 1
 6 27 l 1
 338 419 l 1
 200 419 l 2
 181 419 166 413 157 403 c 0
 147 393 140 381 135 367 c 2
 125 340 l 1
 94 340 l 1
 120 452 l 1
 426 452 l 1
 420 425 l 1
 88 33 l 1
 249 33 l 2
 268 33 283 39 292 48 c 0
 302 58 309 71 314 85 c 2
 324 112 l 1
 359 112 l 5
 329 0 l 5
 0 0 l 1
EndSplineSet
EndChar
